<svg width="150" height="150" viewBox="0 0 150 150" fill="none" xmlns="http://www.w3.org/2000/svg">
<path d="M75 150C116.421 150 150 116.421 150 75C150 33.5786 116.421 0 75 0C33.5786 0 0 33.5786 0 75C0 116.421 33.5786 150 75 150Z" fill="#F9F9FB"/>
<path fill-rule="evenodd" clip-rule="evenodd" d="M70.5279 42C68.5932 42 67.2846 43.6863 67.2846 45.3447V98.6301C67.2846 100.289 68.5932 102 70.5279 102H80.2575C82.1925 102 83.5008 100.289 83.5008 98.6301V45.3447C83.5008 43.6863 82.1925 42 80.2575 42H70.5279ZM72.1494 46.8648H78.636V53.3511H72.1494V46.8648ZM49.3566 48.4863C47.6019 48.4863 46.1133 49.9749 46.1133 51.7296V98.7567C46.1133 100.511 47.6019 102 49.3566 102H59.0862C60.8409 102 62.3295 100.511 62.3295 98.7567V51.7296C62.3295 49.9749 60.8409 48.4863 59.0862 48.4863H49.3566ZM50.9781 53.3514H57.4644V58.2162H50.9781V53.3514ZM72.1494 58.2162H78.636V85.7838H72.1494V58.2162ZM50.9781 63.081H57.4644V87.4053H50.9781V63.081ZM72.1494 90.6486H78.636V97.1349H72.1494V90.6486ZM50.9781 92.2701H57.4644V97.1349H50.9781V92.2701ZM97.5702 92.094L103.968 91.0242L104.77 95.8227L98.3724 96.8922L97.5702 92.094ZM99.9564 67.0332L103.165 86.226L96.7677 87.2958L93.5589 68.1027L99.9564 67.0332ZM91.9548 58.5063L98.3526 57.4365L99.1548 62.2347L92.757 63.3045L91.9548 58.5063ZM89.5527 53.9754C87.9108 54.2499 86.5761 55.8387 86.8761 57.6342L93.8499 99.3441C94.1499 101.14 95.9331 102.233 97.575 101.958L107.172 100.354C108.814 100.079 110.144 98.4654 109.844 96.6699L102.87 54.96C102.57 53.1645 100.791 52.0965 99.1491 52.371L89.5527 53.9754Z" fill="black"/>
</svg>
